<svg width="24" height="28" viewBox="0 0 24 28" fill="none" xmlns="http://www.w3.org/2000/svg">
<path d="M11.6566 0.536824C11.5384 0.398284 11.393 0.284211 11.2289 0.201331C11.0648 0.11845 10.8854 0.0684386 10.7011 0.0542441C10.5169 0.0400496 10.3316 0.0619595 10.1562 0.118682C9.98077 0.175405 9.81878 0.265792 9.67975 0.384517C9.54073 0.503241 9.42749 0.6479 9.34671 0.809966C9.26593 0.972032 9.21924 1.14823 9.2094 1.32816C9.19956 1.5081 9.22676 1.68813 9.28941 1.85765C9.35205 2.02718 9.44887 2.18276 9.57415 2.31522L10.8425 3.73002C8.5293 3.9486 6.33099 4.81736 4.51456 6.2308C2.69813 7.64424 1.34174 9.54154 0.610128 11.6922C-0.121482 13.8429 -0.196827 16.1545 0.393246 18.3461C0.983319 20.5378 2.21342 22.5152 3.93413 24.0383C5.65485 25.5613 7.79214 26.5644 10.0864 26.9257C12.3807 27.2871 14.7332 26.9911 16.8582 26.0737C18.9832 25.1564 20.7893 23.6571 22.0571 21.7581C23.3249 19.8591 23.9999 17.6419 24 15.376V14.926C24 14.568 23.8541 14.2246 23.5945 13.9714C23.3348 13.7183 22.9826 13.576 22.6154 13.576C22.2482 13.576 21.896 13.7183 21.6363 13.9714C21.3766 14.2246 21.2308 14.568 21.2308 14.926V15.376C21.2306 17.1026 20.721 18.7927 19.7629 20.2447C18.8047 21.6967 17.4384 22.8494 15.8269 23.5652C14.2154 24.281 12.4267 24.5297 10.6742 24.2817C8.92175 24.0338 7.2794 23.2995 5.94309 22.1666C4.60677 21.0337 3.6329 19.5499 3.13762 17.8922C2.64233 16.2346 2.64655 14.473 3.14977 12.8176C3.65299 11.1622 4.63396 9.68282 5.97569 8.55599C7.31742 7.42917 8.96326 6.70242 10.7169 6.46242L9.57231 7.73682C9.45254 7.87038 9.36093 8.02562 9.3027 8.1937C9.24447 8.36177 9.22077 8.53938 9.23294 8.71639C9.24511 8.8934 9.29292 9.06633 9.37364 9.22533C9.45436 9.38432 9.56641 9.52625 9.70339 9.64302C9.84036 9.7598 9.99959 9.84912 10.172 9.90589C10.3444 9.96266 10.5265 9.98578 10.7081 9.97391C10.8896 9.96204 11.067 9.91543 11.2301 9.83673C11.3931 9.75802 11.5387 9.64878 11.6585 9.51522L14.8892 5.91522C15.1102 5.6691 15.232 5.35313 15.232 5.02602C15.232 4.69892 15.1102 4.38295 14.8892 4.13682L11.6566 0.536824ZM18.1015 11.3188C18.3484 11.5836 18.4773 11.9331 18.46 12.2906C18.4427 12.648 18.2806 12.9841 18.0092 13.225L12.9323 17.725C12.6689 17.9584 12.3235 18.0839 11.9677 18.0755C11.6119 18.0672 11.2731 17.9255 11.0215 17.68L8.71385 15.43C8.46927 15.1741 8.33612 14.8356 8.34245 14.4859C8.34878 14.1361 8.49409 13.8024 8.74778 13.5551C9.00146 13.3078 9.34371 13.1661 9.70242 13.1599C10.0611 13.1537 10.4083 13.2836 10.6708 13.522L12.0462 14.8612L16.1446 11.227C16.2791 11.1076 16.4365 11.0151 16.6076 10.955C16.7788 10.8949 16.9605 10.8682 17.1422 10.8766C17.3239 10.8849 17.5022 10.9281 17.6668 11.0037C17.8314 11.0793 17.9792 11.1876 18.1015 11.3188Z" fill="white"/>
</svg>
