<svg width="61" height="49" viewBox="0 0 61 49" fill="none" xmlns="http://www.w3.org/2000/svg">
<path d="M58 12.1667L47.1198 18.2112C41.0539 21.5811 38.0209 23.2663 34.8089 23.9269C31.9661 24.5114 29.0339 24.5114 26.1911 23.9269C22.9792 23.2663 19.9462 21.5811 13.8802 18.2112L3 12.1667M12.7778 45.7778H48.2222C51.6447 45.7778 53.3562 45.7778 54.6633 45.1117C55.8131 44.5259 56.7481 43.5909 57.3339 42.4411C58 41.1339 58 39.4225 58 36V12.7778C58 9.35525 58 7.64396 57.3339 6.33673C56.7481 5.18683 55.8131 4.25195 54.6633 3.66608C53.3562 3 51.6447 3 48.2222 3H12.7778C9.35525 3 7.64396 3 6.33673 3.66608C5.18683 4.25195 4.25195 5.18683 3.66608 6.33673C3 7.64396 3 9.35522 3 12.7778V36C3 39.4225 3 41.1339 3.66608 42.4411C4.25195 43.5909 5.18683 44.5259 6.33673 45.1117C7.64396 45.7778 9.35522 45.7778 12.7778 45.7778Z" stroke="black" stroke-width="5" stroke-linecap="round" stroke-linejoin="round"/>
</svg>
