<svg width="27" height="29" viewBox="0 0 27 29" fill="none" xmlns="http://www.w3.org/2000/svg">
<path d="M26.273 11.2153L15.023 0.60089C15.0175 0.596092 15.0123 0.590923 15.0075 0.585421C14.5933 0.208733 14.0535 0 13.4937 0C12.9338 0 12.394 0.208733 11.9798 0.585421L11.9644 0.60089L0.727031 11.2153C0.497809 11.426 0.314837 11.6821 0.189691 11.9673C0.0645458 12.2524 -4.73103e-05 12.5604 2.59985e-08 12.8718V25.8726C2.59985e-08 26.4693 0.237053 27.0416 0.65901 27.4636C1.08097 27.8856 1.65326 28.1226 2.25 28.1226H9C9.59674 28.1226 10.169 27.8856 10.591 27.4636C11.0129 27.0416 11.25 26.4693 11.25 25.8726V19.1226H15.75V25.8726C15.75 26.4693 15.9871 27.0416 16.409 27.4636C16.831 27.8856 17.4033 28.1226 18 28.1226H24.75C25.3467 28.1226 25.919 27.8856 26.341 27.4636C26.7629 27.0416 27 26.4693 27 25.8726V12.8718C27 12.5604 26.9355 12.2524 26.8103 11.9673C26.6852 11.6821 26.5022 11.426 26.273 11.2153ZM24.75 25.8726H18V19.1226C18 18.5259 17.7629 17.9536 17.341 17.5316C16.919 17.1097 16.3467 16.8726 15.75 16.8726H11.25C10.6533 16.8726 10.081 17.1097 9.65901 17.5316C9.23705 17.9536 9 18.5259 9 19.1226V25.8726H2.25V12.8718L2.26547 12.8578L13.5 2.24761L24.7359 12.855L24.7514 12.869L24.75 25.8726Z" fill="white"/>
</svg>
