<svg width="15" height="17" viewBox="0 0 15 17" fill="none" xmlns="http://www.w3.org/2000/svg">
<path d="M1.62163 0H8.91898C9.34906 0 9.76153 0.17085 10.0656 0.474965C10.3698 0.77908 10.5406 1.19155 10.5406 1.62163V3.24326H8.91898V1.62163H1.62163V14.5947H8.91898V12.9731H10.5406V14.5947C10.5406 15.0248 10.3698 15.4372 10.0656 15.7414C9.76153 16.0455 9.34906 16.2163 8.91898 16.2163H1.62163C1.19155 16.2163 0.77908 16.0455 0.474965 15.7414C0.17085 15.4372 0 15.0248 0 14.5947V1.62163C0 1.19155 0.17085 0.77908 0.474965 0.474965C0.77908 0.17085 1.19155 0 1.62163 0Z" fill="#EF3939"/>
<path d="M9.80264 11.0191L10.9459 12.1624L15 8.10828L10.9459 4.0542L9.80264 5.19745L11.8945 7.29746H4.05396V8.9191H11.8945L9.80264 11.0191Z" fill="#EF3939"/>
</svg>
