<svg width="61" height="55" viewBox="0 0 61 55" fill="none" xmlns="http://www.w3.org/2000/svg">
<path d="M51.8889 51.8889V33.5556M51.8889 33.5556L45.7778 39.6667M51.8889 33.5556L58 39.6667M58 21.3333V12.7778C58 9.35525 58 7.64396 57.3339 6.33673C56.7481 5.18683 55.8131 4.25195 54.6633 3.66608C53.3562 3 51.6447 3 48.2222 3H12.7778C9.35525 3 7.64396 3 6.33673 3.66608C5.18683 4.25195 4.25195 5.18683 3.66608 6.33673C3 7.64396 3 9.35525 3 12.7778V36C3 39.4225 3 41.1339 3.66608 42.4411C4.25195 43.5909 5.18683 44.5259 6.33673 45.1117C7.64396 45.7778 9.35525 45.7778 12.7778 45.7778H33.5556M56.7983 12.9681L41.3469 23.269C37.4266 25.8824 35.4665 27.1893 33.3478 27.6971C31.4753 28.1457 29.5234 28.1457 27.6513 27.6971C25.5326 27.1893 23.5724 25.8824 19.652 23.269L3.45057 12.468" stroke="black" stroke-width="5" stroke-linecap="round" stroke-linejoin="round"/>
</svg>
