<svg width="61" height="57" viewBox="0 0 61 57" fill="none" xmlns="http://www.w3.org/2000/svg">
<path d="M6.05556 50.7837L21.3333 35.5059M54.9444 50.7837L39.6667 35.5059M3.08653 23.2837L25.0752 38.0011C27.0353 39.308 28.0155 39.9612 29.0749 40.2152C30.0108 40.4394 30.9868 40.4394 31.923 40.2152C32.9823 39.9612 33.9626 39.308 35.9227 38.0011L57.9114 23.2837M25.2998 5.16058L7.57765 16.2904C5.90647 17.3399 5.0709 17.8646 4.46483 18.574C3.92843 19.2019 3.52482 19.9319 3.27839 20.7201C3 21.6106 3 22.5973 3 24.5707V44.0615C3 47.484 3 49.1954 3.66608 50.5026C4.25195 51.6524 5.18683 52.5874 6.33673 53.1732C7.64396 53.8393 9.35525 53.8393 12.7778 53.8393H48.2222C51.6447 53.8393 53.3562 53.8393 54.6633 53.1732C55.8131 52.5874 56.7481 51.6524 57.3339 50.5026C58 49.1954 58 47.484 58 44.0615V24.5707C58 22.5973 58 21.6106 57.7216 20.7201C57.4751 19.9319 57.0717 19.2019 56.5352 18.574C55.9292 17.8646 55.0936 17.3399 53.4225 16.2904L35.7002 5.16058C33.8141 3.97615 32.8711 3.38395 31.8594 3.15311C30.9644 2.94896 30.0356 2.94896 29.1406 3.15311C28.1289 3.38395 27.1859 3.97615 25.2998 5.16058Z" stroke="black" stroke-width="5" stroke-linecap="round" stroke-linejoin="round"/>
</svg>
