<svg width="35" height="35" viewBox="0 0 35 35" fill="none" xmlns="http://www.w3.org/2000/svg">
<g clip-path="url(#clip0_265_322)">
<path d="M10.9375 24.0625C12.0978 24.0625 13.2106 23.6016 14.0311 22.7811C14.8516 21.9606 15.3125 20.8478 15.3125 19.6875C15.3125 18.5272 14.8516 17.4144 14.0311 16.5939C13.2106 15.7734 12.0978 15.3125 10.9375 15.3125C9.77718 15.3125 8.66438 15.7734 7.84391 16.5939C7.02344 17.4144 6.5625 18.5272 6.5625 19.6875C6.5625 20.8478 7.02344 21.9606 7.84391 22.7811C8.66438 23.6016 9.77718 24.0625 10.9375 24.0625ZM10.9375 17.5C11.5177 17.5 12.0741 17.7305 12.4843 18.1407C12.8945 18.5509 13.125 19.1073 13.125 19.6875C13.125 20.2677 12.8945 20.8241 12.4843 21.2343C12.0741 21.6445 11.5177 21.875 10.9375 21.875C10.3573 21.875 9.80094 21.6445 9.3907 21.2343C8.98047 20.8241 8.75 20.2677 8.75 19.6875C8.75 19.1073 8.98047 18.5509 9.3907 18.1407C9.80094 17.7305 10.3573 17.5 10.9375 17.5ZM16.4062 26.25H5.46875C4.01835 26.25 2.62735 26.8262 1.60176 27.8518C0.57617 28.8773 0 30.2683 0 31.7188C0 32.589 0.345704 33.4236 0.961058 34.0389C1.57641 34.6543 2.41101 35 3.28125 35H18.5938C19.464 35 20.2986 34.6543 20.9139 34.0389C21.5293 33.4236 21.875 32.589 21.875 31.7188C21.875 30.2683 21.2988 28.8773 20.2732 27.8518C19.2477 26.8262 17.8567 26.25 16.4062 26.25ZM18.5938 32.8125H3.28125C2.99117 32.8125 2.71297 32.6973 2.50785 32.4921C2.30273 32.287 2.1875 32.0088 2.1875 31.7188C2.1875 30.8485 2.5332 30.0139 3.14856 29.3986C3.76391 28.7832 4.59851 28.4375 5.46875 28.4375H16.4062C17.2765 28.4375 18.1111 28.7832 18.7264 29.3986C19.3418 30.0139 19.6875 30.8485 19.6875 31.7188C19.6875 32.0088 19.5723 32.287 19.3671 32.4921C19.162 32.6973 18.8838 32.8125 18.5938 32.8125ZM35 5.46875V16.4062C35 17.8567 34.4238 19.2477 33.3982 20.2732C32.3727 21.2988 30.9817 21.875 29.5312 21.875H23.4216L19.3681 25.9306C19.2664 26.0321 19.1456 26.1126 19.0127 26.1674C18.8799 26.2222 18.7375 26.2503 18.5938 26.25C18.4503 26.2506 18.3082 26.2223 18.1759 26.1669C17.9759 26.0842 17.8049 25.944 17.6846 25.7641C17.5643 25.5842 17.5 25.3727 17.5 25.1562V20.7812C17.5 20.4912 17.6152 20.213 17.8204 20.0079C18.0255 19.8027 18.3037 19.6875 18.5938 19.6875C18.8838 19.6875 19.162 19.8027 19.3671 20.0079C19.5723 20.213 19.6875 20.4912 19.6875 20.7812V22.5159L22.1944 20.0069C22.2961 19.9054 22.4169 19.8249 22.5498 19.7701C22.6826 19.7153 22.825 19.6872 22.9688 19.6875H29.5312C30.4015 19.6875 31.2361 19.3418 31.8514 18.7264C32.4668 18.1111 32.8125 17.2765 32.8125 16.4062V5.46875C32.8125 4.59851 32.4668 3.76391 31.8514 3.14856C31.2361 2.5332 30.4015 2.1875 29.5312 2.1875H14.2188C13.3485 2.1875 12.5139 2.5332 11.8986 3.14856C11.2832 3.76391 10.9375 4.59851 10.9375 5.46875V12.0312C10.9375 12.3213 10.8223 12.5995 10.6171 12.8046C10.412 13.0098 10.1338 13.125 9.84375 13.125C9.55367 13.125 9.27547 13.0098 9.07035 12.8046C8.86523 12.5995 8.75 12.3213 8.75 12.0312V5.46875C8.75 4.01835 9.32617 2.62735 10.3518 1.60176C11.3773 0.57617 12.7683 0 14.2188 0L29.5312 0C30.9817 0 32.3727 0.57617 33.3982 1.60176C34.4238 2.62735 35 4.01835 35 5.46875ZM22.9688 4.375V9.84375H28.4375C28.7276 9.84375 29.0058 9.95898 29.2109 10.1641C29.416 10.3692 29.5312 10.6474 29.5312 10.9375C29.5312 11.2276 29.416 11.5058 29.2109 11.7109C29.0058 11.916 28.7276 12.0312 28.4375 12.0312H22.9688V17.5C22.9688 17.7901 22.8535 18.0683 22.6484 18.2734C22.4433 18.4785 22.1651 18.5938 21.875 18.5938C21.5849 18.5938 21.3067 18.4785 21.1016 18.2734C20.8965 18.0683 20.7812 17.7901 20.7812 17.5V12.0312H15.3125C15.0224 12.0312 14.7442 11.916 14.5391 11.7109C14.334 11.5058 14.2188 11.2276 14.2188 10.9375C14.2188 10.6474 14.334 10.3692 14.5391 10.1641C14.7442 9.95898 15.0224 9.84375 15.3125 9.84375H20.7812V4.375C20.7812 4.08492 20.8965 3.80672 21.1016 3.6016C21.3067 3.39648 21.5849 3.28125 21.875 3.28125C22.1651 3.28125 22.4433 3.39648 22.6484 3.6016C22.8535 3.80672 22.9688 4.08492 22.9688 4.375Z" fill="white"/>
</g>
<defs>
<clipPath id="clip0_265_322">
<rect width="35" height="35" fill="white"/>
</clipPath>
</defs>
</svg>
