<svg width="61" height="50" viewBox="0 0 61 50" fill="none" xmlns="http://www.w3.org/2000/svg">
<path d="M42.7222 39.6667H58M50.3611 32.0278V47.3055M30.5 45.7778H12.7778C9.35525 45.7778 7.64396 45.7778 6.33673 45.1117C5.18683 44.5259 4.25195 43.5909 3.66608 42.4411C3 41.1339 3 39.4225 3 36V12.7778C3 9.35525 3 7.64395 3.66608 6.33673C4.25195 5.18683 5.18683 4.25195 6.33673 3.66608C7.64396 3 9.35525 3 12.7778 3H48.2222C51.6447 3 53.3562 3 54.6633 3.66608C55.8131 4.25195 56.7481 5.18683 57.3339 6.33673C58 7.64395 58 9.35525 58 12.7778V21.3333M56.7983 12.9681L41.3469 23.269C37.4266 25.8824 35.4665 27.1893 33.3478 27.6971C31.4753 28.1457 29.5234 28.1457 27.6513 27.6971C25.5326 27.1893 23.5724 25.8824 19.652 23.269L3.45057 12.468" stroke="black" stroke-width="5" stroke-linecap="round" stroke-linejoin="round"/>
</svg>
